<?xml version="1.0"?>
<svg width="640" height="480" xmlns="http://www.w3.org/2000/svg" xmlns:svg="http://www.w3.org/2000/svg" xmlns:xlink="http://www.w3.org/1999/xlink" style="vector-effect: non-scaling-stroke;">
 <!-- Created with SVG-edit - https://github.com/SVG-Edit/svgedit-->
 <defs style="vector-effect: non-scaling-stroke;">
  <symbol id="svg_2" style="vector-effect: non-scaling-stroke;" viewBox="0 0 512.007 512.007" x="0px" xmlns="http://www.w3.org/2000/svg" xmlns:xlink="http://www.w3.org/1999/xlink" y="0px">
   <g style="vector-effect: non-scaling-stroke;">
    <g style="vector-effect: non-scaling-stroke;">
     <g style="vector-effect: non-scaling-stroke;">
      <path d="m230.661,221.873l-0.094,0c-4.702,0 -8.482,3.823 -8.482,8.533s3.857,8.533 8.576,8.533c4.71,0 8.533,-3.823 8.533,-8.533s-3.823,-8.533 -8.533,-8.533z" style="vector-effect: non-scaling-stroke;"/>
      <path d="m298.672,196.273c0,-4.71 -3.823,-8.533 -8.533,-8.533l-103.945,0l-15.693,-78.473c-0.913,-4.617 -5.367,-7.629 -10.044,-6.69c-4.617,0.922 -7.612,5.419 -6.69,10.035l34.133,170.667c0.811,4.053 4.378,6.861 8.363,6.861c0.546,0 1.118,-0.051 1.681,-0.171c4.617,-0.922 7.62,-5.419 6.69,-10.035l-15.027,-75.127l100.531,0c4.711,-0.001 8.534,-3.823 8.534,-8.534z" style="vector-effect: non-scaling-stroke;"/>
      <path d="m179.461,341.34l-0.094,0c-4.702,0 -8.482,3.823 -8.482,8.533s3.857,8.533 8.576,8.533c4.71,0 8.533,-3.823 8.533,-8.533s-3.823,-8.533 -8.533,-8.533z" style="vector-effect: non-scaling-stroke;"/>
      <path d="m247.728,358.406l-0.094,0c-4.71,0 -8.482,3.823 -8.482,8.533s3.857,8.533 8.576,8.533c4.71,0 8.533,-3.823 8.533,-8.533s-3.823,-8.533 -8.533,-8.533z" style="vector-effect: non-scaling-stroke;"/>
      <path d="m387.231,22.68c-0.06,-0.051 -0.077,-0.128 -0.128,-0.179c-0.06,-0.06 -0.137,-0.077 -0.179,-0.128c-13.901,-13.816 -33.033,-22.367 -54.119,-22.367c-20.19,0 -39.194,8.201 -53.316,21.837c-0.324,0.239 -0.7,0.367 -0.998,0.657c-0.256,0.256 -0.358,0.589 -0.572,0.862c-5.837,5.965 -10.854,12.792 -14.532,20.531c-2.022,4.258 -0.205,9.352 4.053,11.375c4.25,2.022 9.344,0.213 11.366,-4.053c1.724,-3.618 3.9,-6.929 6.263,-10.078l17.57,17.57c1.664,1.664 3.849,2.5 6.033,2.5c2.176,0 4.361,-0.836 6.033,-2.5c3.328,-3.337 3.328,-8.738 0,-12.066l-17.545,-17.536c10.155,-7.578 22.571,-12.032 35.644,-12.032c13.389,0 25.719,4.48 35.695,11.955l-17.596,17.613c-3.337,3.328 -3.337,8.738 0,12.066c1.664,1.664 3.849,2.5 6.033,2.5c2.185,0 4.369,-0.836 6.033,-2.5l17.596,-17.613c7.484,9.975 11.972,22.315 11.972,35.712c0,13.278 -4.429,25.668 -11.938,35.729l-17.63,-17.63c-3.337,-3.337 -8.738,-3.337 -12.066,0c-3.337,3.336 -3.337,8.738 0,12.066l17.562,17.562c-6.135,4.599 -13.133,8.201 -20.932,10.18c-4.565,1.152 -7.33,5.794 -6.17,10.368c0.981,3.866 4.454,6.434 8.26,6.434c0.7,0 1.399,-0.085 2.108,-0.265c13.739,-3.49 25.762,-10.59 35.268,-20.07c0.034,-0.034 0.077,-0.043 0.111,-0.077c0.034,-0.034 0.043,-0.077 0.077,-0.111c13.961,-14.029 22.417,-33.28 22.417,-54.187c0.001,-21.101 -8.558,-40.225 -22.373,-54.125z" style="vector-effect: non-scaling-stroke;"/>
      <path d="m247.728,307.206l-0.094,0c-4.71,0 -8.482,3.823 -8.482,8.533s3.857,8.533 8.576,8.533c4.71,0 8.533,-3.823 8.533,-8.533s-3.823,-8.533 -8.533,-8.533z" style="vector-effect: non-scaling-stroke;"/>
      <path d="m341.338,264.54c0,-39.134 -5.453,-61.824 -10.257,-81.843c-3.652,-15.198 -6.81,-28.331 -6.81,-46.157c0,-23.245 16.009,-55.595 16.162,-55.919c1.323,-2.645 1.178,-5.786 -0.375,-8.303c-1.553,-2.509 -4.301,-4.045 -7.253,-4.045l-172.544,0l-15.454,-61.807c-1.135,-4.565 -5.769,-7.364 -10.334,-6.204c-4.582,1.143 -7.364,5.777 -6.212,10.351l14.413,57.66l-31.735,0c-2.961,0 -5.7,1.536 -7.262,4.045c-1.553,2.517 -1.698,5.658 -0.375,8.303c0.171,0.324 16.171,32.606 16.171,55.919c0,17.826 -3.157,30.959 -6.81,46.157c-4.813,20.019 -10.257,42.709 -10.257,81.843c0,97.826 47.13,172.425 110.933,178.594l0,51.806l-68.267,0c-4.719,0 -8.533,3.823 -8.533,8.533s3.814,8.533 8.533,8.533l153.6,0c4.71,0 8.533,-3.823 8.533,-8.533s-3.823,-8.533 -8.533,-8.533l-68.267,0l0,-51.806c63.795,-6.17 110.933,-80.768 110.933,-178.594zm-119.466,162.133c-58.377,0 -102.4,-69.7 -102.4,-162.133c0,-26.078 2.577,-44.45 5.7,-59.733l19.9,0c4.71,0 8.533,-3.823 8.533,-8.533s-3.823,-8.533 -8.533,-8.533l-16.06,0c0.085,-0.35 0.162,-0.708 0.247,-1.058c3.746,-15.573 7.279,-30.293 7.279,-50.142c0,-17.604 -7.168,-38.315 -12.45,-51.2l195.567,0c-5.282,12.885 -12.45,33.596 -12.45,51.2c0,19.849 3.533,34.569 7.27,50.142c4.591,19.098 9.796,40.738 9.796,77.858c0.001,92.432 -44.023,162.132 -102.399,162.132z" style="vector-effect: non-scaling-stroke;"/>
      <path d="m290.394,264.54c0,-4.71 -3.823,-8.533 -8.533,-8.533l-0.094,0c-4.71,0 -8.482,3.823 -8.482,8.533c0,4.71 3.857,8.533 8.576,8.533c4.71,0 8.533,-3.823 8.533,-8.533z" style="vector-effect: non-scaling-stroke;"/>
     </g>
    </g>
   </g>
   <g style="vector-effect: non-scaling-stroke;"/>
   <g style="vector-effect: non-scaling-stroke;"/>
   <g style="vector-effect: non-scaling-stroke;"/>
   <g style="vector-effect: non-scaling-stroke;"/>
   <g style="vector-effect: non-scaling-stroke;"/>
   <g style="vector-effect: non-scaling-stroke;"/>
   <g style="vector-effect: non-scaling-stroke;"/>
   <g style="vector-effect: non-scaling-stroke;"/>
   <g style="vector-effect: non-scaling-stroke;"/>
   <g style="vector-effect: non-scaling-stroke;"/>
   <g style="vector-effect: non-scaling-stroke;"/>
   <g style="vector-effect: non-scaling-stroke;"/>
   <g style="vector-effect: non-scaling-stroke;"/>
   <g style="vector-effect: non-scaling-stroke;"/>
   <g style="vector-effect: non-scaling-stroke;"/>
  </symbol>
 </defs>
 <g class="layer">
  <title>Layer 1</title>
  <use fill="#fdfdfd" fill-opacity="0.86" id="svg_3" stroke="#ffffff" transform="matrix(1.2507 0 0 0.989811 -71.2259 1.94481)" x="0" xlink:href="#svg_2" y="0"/>
  <g id="svg_4" style="vector-effect: non-scaling-stroke;"/>
 </g>
</svg>